<?xml version="1.0" encoding="utf-8"?>
<!-- Generator: Adobe Illustrator 24.3.0, SVG Export Plug-In . SVG Version: 6.00 Build 0)  -->
<svg version="1.1" id="Layer_1" xmlns="http://www.w3.org/2000/svg" xmlns:xlink="http://www.w3.org/1999/xlink" x="0px" y="0px"
	 viewBox="0 0 64 64" enable-background="new 0 0 64 64" xml:space="preserve">

<style>
	.leaf{
			fill:#008020;
		}
		.pot{
			fill:#FFBF00;
		}
	.pot-shadow{
			fill:#F0A400
		}
		
	@media (prefers-color-scheme: dark){
		.outline{
			fill:#cccccc;
		}
	
	}
</style>
<path class="leaf" d="M57.5,30.3l-1.9-1.4l0,0c0,0-0.1-0.1-0.2-0.1c-0.7-0.4-3-1.6-6.1-1.8l1.1,4.1c1.3,4.5,3.5,8.7,6.6,12.2
	l3.4,3.8L61,38C61.2,35,59.9,32.1,57.5,30.3z"/>
<path class="leaf" d="M12,10.3c-3.7,0-8.9,3.3-8.9,3.3L6.9,14c4.2,0.5,8.3,1.6,12.1,3.2l1,0.4l7.5,4.7c-0.9-2.8-1.9-5-3.1-5.9
	C19.8,12.5,15.7,10.3,12,10.3z"/>
<polygon class="leaf" points="28,10.6 31.8,23.4 31.8,2 "/>
<path class="leaf" d="M53.7,11.4l0.2-0.4c0,0-6,2-13,10c-0.7,0.8-1.4,1.8-2.1,2.8C45.4,22.1,50.9,17.6,53.7,11.4z"/>
<path class="leaf" d="M8.7,28.9L8.7,28.9l-2,1.5C4.3,32.1,3,35,3.2,38L3.9,47l3.4-3.8c3.1-3.5,5.3-7.7,6.6-12.2l1.1-4.1
		c-3.1,0.2-5.4,1.4-6.1,1.8C8.8,28.8,8.7,28.9,8.7,28.9z"/>

<path class="pot" d="M31.9,45h-11c0,6.4,1.5,12.1,3.9,16H39c2.4-3.9,3.9-9.6,3.9-16H31.9z"/>
<path class="pot-shadow" d="M42.4,45C37.4,51.2,31,55.9,23.6,58.7c0.4,0.8,0.8,1.6,1.2,2.3H39c2.4-3.9,3.9-9.6,3.9-16H42.4z"/>

<path class="outline" d="M58.2,29.5l-1.8-1.3c-0.1-0.1-0.1-0.1-0.2-0.2c-0.3-0.2-7.4-4.8-15.1,0c-2.2,1.4-4,3.4-5.4,5.6c1-3,2.3-6.2,3.9-8.9
	c6.7-1.8,12.2-6.5,15.1-12.8l0.2-0.4c0.2-0.4,0.1-0.8-0.2-1.1c-0.3-0.3-0.7-0.4-1.1-0.3c-0.3,0.1-6.3,2.2-13.4,10.3
	c-3.6,4.1-5.9,10.1-7.3,15.1l0-11.8l0.1,0l-0.1-0.4L32.9,2c0-0.5-0.3-0.9-0.8-1c-0.5-0.1-0.9,0.1-1.1,0.6l-3.8,8.6
	c-0.1,0.2-0.1,0.5,0,0.7l3.8,12.6l0,8.2c-1.3-6.7-3.3-13.9-5.8-16.1c-5-4.3-9.3-6.4-13.1-6.4c-3.9,0-9.2,3.3-9.5,3.4
	c-0.4,0.2-0.5,0.7-0.4,1.1c0.1,0.4,0.4,0.7,0.9,0.8L6.9,15c4.1,0.5,8.1,1.5,11.8,3.2l0.9,0.4l7.1,4.5c1.1,3.4,2,7.8,2.7,11.9
	C28,32.3,26,29.7,23.3,28c-7.7-4.8-14.8-0.2-15.1,0c-0.1,0-0.1,0.1-0.2,0.2l-1.8,1.3c-2.7,2-4.1,5.2-3.9,8.5l0.6,9.1
	C3,47.6,3.4,48,3.9,48c0,0,0.1,0,0.1,0c0.3,0,0.6-0.1,0.7-0.3l0,0l3.4-3.8c3.2-3.6,5.5-7.9,6.8-12.6l1-3.4c1.9,0,4.1,0.4,6.4,1.9
	c5.5,3.4,7.9,11.5,8.6,14.3H21c-0.6,0-1,0.4-1,1c0,6.3,1.5,12.4,4,16.5c0.2,0.3,0.5,0.5,0.9,0.5h14.2c0.3,0,0.7-0.2,0.9-0.5
	c2.6-4.2,4-10.2,4-16.5c0-0.6-0.4-1-1-1h-9.7c0.8-3,3.4-10.9,8.9-14.3c2.3-1.4,4.5-1.9,6.4-1.9l1,3.4c1.3,4.6,3.6,9,6.8,12.6
	l3.4,3.8l0,0c0.2,0.2,0.4,0.3,0.7,0.3c0,0,0.1,0,0.1,0c0.5,0,0.9-0.4,0.9-0.9l0.6-9.1C62.3,34.7,60.8,31.5,58.2,29.5z M41.8,21.7
	c4-4.5,7.6-7.1,10-8.4c-2.4,3.9-5.9,6.9-10.1,8.6C41.6,21.8,41.7,21.7,41.8,21.7z M29.2,10.7l1.7-3.9l0,9.7L29.2,10.7z M20.6,16.8
	c0,0-0.1-0.1-0.1-0.1l-1-0.4c-4-1.7-8.1-2.8-12.4-3.3l-0.6-0.1c1.7-0.8,3.9-1.7,5.6-1.7c3.3,0,7.2,1.9,11.8,5.9
	c0.6,0.5,1.2,1.5,1.8,2.8L20.6,16.8z M7,31.4l-2.5,9.5l-0.2-3C4.1,35.4,5.2,33,7,31.4z M12.9,30.8c-1.2,4.3-3.4,8.4-6.4,11.8L6,43.2
	l3.6-13.7c0.6-0.4,2.1-1.1,4-1.4L12.9,30.8z M38.5,60H25.5c-2.1-3.6-3.3-8.6-3.4-14h20C41.9,51.4,40.6,56.4,38.5,60z M60.1,37.9
	l-0.2,3l-2.5-9.5C59.2,33,60.2,35.4,60.1,37.9z M51.5,30.8l-0.8-2.7c2,0.4,3.4,1.1,4,1.4l3.6,13.6l-0.5-0.6
	C54.9,39.2,52.7,35.1,51.5,30.8z"/>
<path d="M39.9,49.2l-2-0.3c0,0.1-1,5.4-2.4,7.9l1.7,1C38.8,55,39.8,49.5,39.9,49.2z"/>
</svg>